<?xml version="1.0" standalone="no"?>
<!DOCTYPE svg PUBLIC "-//W3C//DTD SVG 20010904//EN"
 "http://www.w3.org/TR/2001/REC-SVG-20010904/DTD/svg10.dtd">
<svg version="1.0" xmlns="http://www.w3.org/2000/svg"
 width="500.000000pt" height="500.000000pt" viewBox="0 0 500.000000 500.000000"
 preserveAspectRatio="xMidYMid meet">
<metadata>
Created by potrace 1.14, written by Peter Selinger 2001-2017
</metadata>
<g transform="translate(0.000000,500.000000) scale(0.100000,-0.100000)"
fill="#000000" stroke="none">
<path d="M2193 4974 c-458 -55 -900 -244 -1268 -540 -102 -82 -287 -266 -369
-366 -230 -284 -397 -621 -486 -980 -56 -228 -65 -310 -65 -598 0 -288 9 -368
65 -598 219 -893 922 -1602 1812 -1827 217 -56 308 -65 618 -65 242 0 307 3
404 20 404 69 771 225 1091 463 131 97 349 307 450 432 366 456 555 992 555
1575 0 666 -247 1270 -714 1748 -404 414 -924 670 -1492 737 -157 18 -447 18
-601 -1z m-450 -1345 c202 -17 420 -83 515 -156 51 -38 64 -81 65 -203 1 -110
-13 -174 -40 -184 -9 -4 -63 17 -127 48 -122 59 -268 109 -367 126 -92 14
-273 12 -353 -5 -185 -39 -360 -175 -444 -345 -66 -136 -86 -235 -85 -425 1
-190 17 -268 89 -414 108 -220 317 -341 586 -341 101 1 153 9 241 41 l57 21 0
259 0 259 -211 0 c-123 0 -218 4 -229 10 -26 14 -40 70 -40 160 0 91 14 146
40 160 13 7 154 10 415 8 l395 -3 32 -33 33 -32 3 -483 c2 -265 0 -496 -3
-514 -11 -62 -47 -89 -163 -127 -377 -121 -796 -122 -1091 -3 -274 111 -480
342 -561 628 -68 244 -66 582 6 811 59 186 135 313 268 443 233 230 563 330
969 294z m2220 0 c202 -17 420 -83 515 -156 51 -38 64 -81 65 -203 1 -110 -13
-174 -40 -184 -9 -4 -63 17 -127 48 -122 59 -268 109 -367 126 -92 14 -273 12
-353 -5 -185 -39 -360 -175 -444 -345 -66 -136 -86 -235 -85 -425 1 -190 17
-268 89 -414 108 -220 317 -341 586 -341 101 1 153 9 241 41 l57 21 0 259 0
259 -211 0 c-123 0 -218 4 -229 10 -26 14 -40 70 -40 160 0 91 14 146 40 160
13 7 154 10 415 8 l395 -3 32 -33 33 -32 3 -483 c2 -265 0 -496 -3 -514 -11
-62 -47 -89 -163 -127 -377 -121 -796 -122 -1091 -3 -274 111 -480 342 -561
628 -68 244 -66 582 6 811 59 186 135 313 268 443 233 230 563 330 969 294z"/>
</g>
</svg>
